<?xml version="1.0" encoding="utf-8"?>
<!-- Generator: Adobe Illustrator 23.0.3, SVG Export Plug-In . SVG Version: 6.00 Build 0)  -->
<svg version="1.1" id="Layer_1" xmlns="http://www.w3.org/2000/svg" xmlns:xlink="http://www.w3.org/1999/xlink" x="0px" y="0px"
	 viewBox="0 0 50 17.8" style="enable-background:new 0 0 50 17.8;" xml:space="preserve">
<style type="text/css">
	.st0{fill:#E31E25;}
</style>
<g>
	<path class="st0" d="M3.6,1.1h2V3h-2V1.1z M3.6,4.5h2v8.9h-2V4.5z"/>
	<path class="st0" d="M7.1,4.5H9v1.2l0,0c0.3-0.5,0.7-0.9,1.2-1.1s1-0.3,1.6-0.3c0.7,0,1.3,0.1,1.8,0.4c0.5,0.2,1,0.6,1.3,1
		s0.6,0.9,0.8,1.5S16,8.4,16,9c0,0.6-0.1,1.2-0.2,1.7c-0.2,0.6-0.4,1.1-0.7,1.5s-0.7,0.8-1.2,1c-0.5,0.3-1.1,0.4-1.7,0.4
		c-0.3,0-0.6,0-0.9-0.1c-0.3-0.1-0.6-0.1-0.8-0.3c-0.3-0.1-0.5-0.3-0.7-0.4c-0.2-0.2-0.4-0.4-0.6-0.6l0,0v4.5h-2V4.5H7.1z M14,9
		c0-0.4-0.1-0.8-0.2-1.2c-0.1-0.4-0.3-0.7-0.5-1s-0.5-0.5-0.8-0.7s-0.7-0.3-1.1-0.3c-0.8,0-1.5,0.3-1.9,0.9C9.2,7.2,9,8,9,9
		c0,0.4,0.1,0.9,0.2,1.3c0.1,0.4,0.3,0.7,0.5,1s0.5,0.5,0.8,0.7s0.7,0.2,1.1,0.2c0.4,0,0.8-0.1,1.1-0.3c0.3-0.2,0.6-0.4,0.8-0.7
		c0.2-0.3,0.3-0.6,0.4-1C13.9,9.7,14,9.4,14,9z"/>
	<path class="st0" d="M24.7,13.4h-1.9v-1.2l0,0c-0.2,0.4-0.6,0.8-1.1,1.1c-0.5,0.3-1,0.4-1.5,0.4c-1.2,0-2-0.3-2.5-0.9
		s-0.8-1.5-0.8-2.6V4.5h2V10c0,0.8,0.1,1.3,0.4,1.7c0.3,0.3,0.7,0.5,1.3,0.5c0.4,0,0.8-0.1,1-0.2c0.3-0.1,0.5-0.3,0.7-0.5
		s0.3-0.5,0.4-0.8s0.1-0.6,0.1-1V4.5h2v8.9H24.7z"/>
	<path class="st0" d="M26.2,1.1h2v12.3h-2V1.1z"/>
	<path class="st0" d="M31.1,10.5c0.1,0.6,0.3,1,0.7,1.2c0.4,0.2,0.8,0.3,1.4,0.3c0.2,0,0.4,0,0.6,0c0.2,0,0.5-0.1,0.7-0.2
		s0.4-0.2,0.5-0.4c0.1-0.2,0.2-0.4,0.2-0.6c0-0.3-0.1-0.5-0.3-0.6c-0.2-0.2-0.4-0.3-0.7-0.4s-0.6-0.2-0.9-0.3
		c-0.3-0.1-0.7-0.1-1.1-0.2c-0.4-0.1-0.7-0.2-1.1-0.3c-0.3-0.1-0.6-0.3-0.9-0.5s-0.5-0.4-0.6-0.8c-0.2-0.3-0.2-0.7-0.2-1.1
		c0-0.5,0.1-0.9,0.4-1.2c0.2-0.3,0.5-0.6,0.9-0.8c0.4-0.2,0.8-0.3,1.2-0.4c0.4-0.1,0.9-0.1,1.3-0.1c0.5,0,0.9,0,1.3,0.1
		c0.4,0.1,0.8,0.3,1.1,0.5s0.6,0.5,0.8,0.9s0.4,0.8,0.4,1.3h-2.1c-0.1-0.5-0.3-0.8-0.6-0.9c-0.3-0.2-0.7-0.2-1.2-0.2
		c-0.1,0-0.3,0-0.5,0S32,5.9,31.9,5.9c-0.2,0.1-0.3,0.2-0.4,0.3c-0.1,0.1-0.2,0.3-0.2,0.5s0.1,0.4,0.3,0.6c0.2,0.1,0.4,0.3,0.7,0.4
		s0.6,0.2,0.9,0.3c0.3,0.1,0.7,0.1,1.1,0.2c0.4,0.1,0.7,0.2,1.1,0.3c0.3,0.1,0.7,0.3,0.9,0.5c0.3,0.2,0.5,0.4,0.7,0.7
		c0.2,0.3,0.3,0.7,0.3,1.1c0,0.5-0.1,1-0.4,1.3c-0.2,0.4-0.6,0.7-0.9,0.9c-0.4,0.2-0.8,0.4-1.3,0.5s-0.9,0.2-1.4,0.2
		c-0.6,0-1.1-0.1-1.6-0.2c-0.5-0.1-0.9-0.3-1.2-0.6c-0.4-0.3-0.6-0.6-0.8-1c-0.2-0.4-0.3-0.8-0.3-1.4C29.4,10.5,31.1,10.5,31.1,10.5
		z"/>
	<path class="st0" d="M39.8,9.5c0,0.3,0,0.7,0.1,1s0.2,0.6,0.4,0.8c0.2,0.2,0.4,0.4,0.7,0.6c0.3,0.1,0.7,0.2,1.1,0.2
		c0.6,0,1-0.1,1.4-0.4c0.4-0.2,0.6-0.6,0.8-1.1h1.9c-0.1,0.5-0.3,0.9-0.5,1.3c-0.3,0.4-0.6,0.7-0.9,1c-0.4,0.3-0.8,0.5-1.2,0.6
		s-0.9,0.2-1.4,0.2c-0.7,0-1.3-0.1-1.9-0.3c-0.5-0.2-1-0.6-1.4-1s-0.7-0.9-0.8-1.5c-0.2-0.6-0.3-1.2-0.3-1.9c0-0.6,0.1-1.2,0.3-1.8
		c0.2-0.6,0.5-1.1,0.9-1.5s0.8-0.8,1.4-1c0.5-0.3,1.1-0.4,1.8-0.4s1.3,0.1,1.9,0.4c0.6,0.3,1,0.7,1.4,1.2s0.6,1,0.8,1.7
		c0.2,0.6,0.2,1.3,0.1,1.9C46.4,9.5,39.8,9.5,39.8,9.5z M44.3,8.2c0-0.3-0.1-0.6-0.2-0.9C44,7,43.8,6.8,43.7,6.5
		C43.5,6.3,43.3,6.1,43,6s-0.6-0.2-0.9-0.2c-0.3,0-0.7,0.1-0.9,0.2c-0.3,0.1-0.5,0.3-0.7,0.5S40.1,7,40,7.3s-0.2,0.6-0.2,0.9H44.3z"
		/>
</g>
</svg>
